# xmcd CD database file
#
# Track frame offsets:
#	150
#	20812
#	41975
#	63300
#	84737
#	100787
#	121837
#	142200
#	157587
#	173012
#	190825
#	210650
#	229275
#	252362
#	272200
#	291275
#	313200
#
# Disc length: 4375 seconds
#
# Revision: 13
# Processed by: cddbd v1.5.2PL0 Copyright (c) Steve Scherf et al.
# Submitted via: CDex 1.70beta2
#
DISCID=fd111511
DTITLE=許志安 - 男人最痛
DYEAR=1996
DGENRE=Pop
TTITLE0=男人最痛(女人痛錫劇場版)
TTITLE1=喜歡妳是妳
TTITLE2=心血
TTITLE3=想說
TTITLE4=荒廢的樂園
TTITLE5=從沒這麼愛戀過
TTITLE6=我心中有妳
TTITLE7=迷糊、情慾、對象
TTITLE8=用愛造世界
TTITLE9=雨天晴天
TTITLE10=雨後陽光
TTITLE11=向全世界說愛妳
TTITLE12=讓我待妳好一點
TTITLE13=祇要妳親口道別
TTITLE14=唯獨妳是不可取替
TTITLE15=從妳祝福中離開
TTITLE16=戀愛片段
EXTD=(P) Capital Artists Ltd. YEAR: 1996
EXTT0=
EXTT1=
EXTT2=
EXTT3=
EXTT4=
EXTT5=
EXTT6=
EXTT7=
EXTT8=
EXTT9=
EXTT10=
EXTT11=
EXTT12=
EXTT13=
EXTT14=
EXTT15=
EXTT16=
PLAYORDER=
